<svg xmlns="http://www.w3.org/2000/svg" xmlns:xlink="http://www.w3.org/1999/xlink" viewBox="0 0 209.72 208.52"><defs><linearGradient id="Dégradé_sans_nom_4" y1="104.26" x2="209.72" y2="104.26" gradientUnits="userSpaceOnUse"><stop offset="0" stop-color="#b61c24"/><stop offset="1" stop-color="#fc0006"/></linearGradient></defs><title>A</title><g id="Calque_2" data-name="Calque 2"><g id="Calque_1-2" data-name="Calque 1"><path d="M188.44,149.71c.05,13.62-6.65,31.28-40.15,34.94l-.42,0L156,208.52h53.77Zm-5.56-14.44c-.16-.73-.29-1.44-.43-2.11L134.27,0H75.47L30.19,125.11c10.49-13.46,28-23.51,57.1-18.12l.24,0,17-50.89,25.84,76.34H79l.08-.27c-19.27,0-52,2.22-57.21,16.28l-7.38,20.1v-.18L0,208.52H53.17L65.66,171.7h76.75C162.05,169.79,188.42,162.27,182.88,135.27Z" style="fill:url(#Dégradé_sans_nom_4)"/></g></g></svg>