<svg xmlns="http://www.w3.org/2000/svg" xmlns:xlink="http://www.w3.org/1999/xlink" viewBox="0 0 202.27 207.79"><defs><linearGradient id="Dégradé_sans_nom_4" y1="103.9" x2="202.27" y2="103.9" gradientUnits="userSpaceOnUse"><stop offset="0" stop-color="#b61c24"/><stop offset="1" stop-color="#fc0006"/></linearGradient></defs><title>G</title><g id="Calque_2" data-name="Calque 2"><g id="Calque_1-2" data-name="Calque 1"><path d="M143.86,66.84A37.31,37.31,0,0,0,128,51.29q-10.32-5.37-24.27-5.37-24.12,0-38.65,15.84T50.57,104q0,28.2,15.25,44t42,15.84q18.32,0,31-9.3t18.45-26.74H94.16V91.25H202.27v46.21a97.59,97.59,0,0,1-18.74,34.59A99,99,0,0,1,150,197.91q-20.34,9.89-45.92,9.88-30.23,0-53.91-13.22a94.2,94.2,0,0,1-36.91-36.76Q0,134.26,0,104T13.22,50.13A94.23,94.23,0,0,1,50,13.22Q73.53,0,103.75,0q36.62,0,61.76,17.73t33.27,49.11Z" style="fill:url(#Dégradé_sans_nom_4)"/></g></g></svg>