<svg xmlns="http://www.w3.org/2000/svg" xmlns:xlink="http://www.w3.org/1999/xlink" viewBox="0 0 101.03 101"><defs><linearGradient id="Dégradé_sans_nom_40" x1="78.76" y1="-8.73" x2="32.27" y2="79.33" gradientUnits="userSpaceOnUse"><stop offset="0" stop-color="#fff"/><stop offset="1" stop-color="#999"/></linearGradient><linearGradient id="Dégradé_sans_nom_36" x1="0.03" y1="57.24" x2="101.03" y2="57.24" gradientUnits="userSpaceOnUse"><stop offset="0" stop-color="#fff"/><stop offset="1" stop-color="#b3b3b3"/></linearGradient><linearGradient id="Dégradé_sans_nom_26" y1="51.12" x2="0.03" y2="51.12" gradientUnits="userSpaceOnUse"><stop offset="0" stop-color="#fff"/><stop offset="1" stop-color="#606060"/></linearGradient><linearGradient id="Dégradé_sans_nom_4" x1="57.07" y1="77.69" x2="57.92" y2="12.78" gradientUnits="userSpaceOnUse"><stop offset="0" stop-color="#b61c24"/><stop offset="1" stop-color="#fc0006"/></linearGradient><linearGradient id="Dégradé_sans_nom_4-2" x1="73.11" y1="81.54" x2="73.35" y2="63.36" xlink:href="#Dégradé_sans_nom_4"/><linearGradient id="Dégradé_sans_nom_4-3" x1="56.56" y1="58.15" x2="57.09" y2="17.41" xlink:href="#Dégradé_sans_nom_4"/><linearGradient id="Dégradé_sans_nom_4-4" x1="46.32" y1="81.81" x2="46.71" y2="52.5" xlink:href="#Dégradé_sans_nom_4"/><linearGradient id="Dégradé_sans_nom_4-5" x1="49.64" y1="13.13" x2="41.7" y2="59.9" xlink:href="#Dégradé_sans_nom_4"/><linearGradient id="Dégradé_sans_nom_4-6" x1="41.28" y1="17.55" x2="41.42" y2="17.55" xlink:href="#Dégradé_sans_nom_4"/><linearGradient id="Dégradé_sans_nom_4-7" x1="57.33" y1="55.28" x2="57.39" y2="55.28" xlink:href="#Dégradé_sans_nom_4"/><linearGradient id="Dégradé_sans_nom_4-9" x1="72.16" y1="52.64" x2="72.3" y2="52.64" xlink:href="#Dégradé_sans_nom_4"/></defs><title>icon</title><g id="Calque_2" data-name="Calque 2"><g id="Calque_1-2" data-name="Calque 1"><path d="M101,9.61V82.27C90.86,80.87,6,67.58,0,13.49V9.61A9.61,9.61,0,0,1,9.64,0H91.42A9.61,9.61,0,0,1,101,9.61Z" style="fill:url(#Dégradé_sans_nom_40)"/><path d="M101,82.27v9.12A9.61,9.61,0,0,1,91.42,101H9.64A9.61,9.61,0,0,1,0,91.39V13.49C6,67.58,90.86,80.87,101,82.27Z" style="fill:url(#Dégradé_sans_nom_36)"/><path d="M0,13.49V89L0,13.24Z" style="fill:url(#Dégradé_sans_nom_26)"/><path d="M57.34,55.19h0l.06.18A1.21,1.21,0,0,1,57.34,55.19Z" style="fill:url(#Dégradé_sans_nom_4)"/><path d="M82.65,81.44H66.14l-2.47-7.31.12,0C74.08,73,76.13,67.57,76.12,63.39Z" style="fill:url(#Dégradé_sans_nom_4-2)"/><path d="M72.3,52.83c0,3.61-6.93,4.94-14.1,5.34,0,0,0,0,0-.07-.14-.46-.4-1.37-.77-2.63l0-.1a1.21,1.21,0,0,1,0-.18c-2.77-9.31-11-35.6-15.92-37.69l0-.06H59.49l12.67,35Z" style="fill:url(#Dégradé_sans_nom_4-3)"/><path d="M62,70.14H38.43L34.6,81.44H18.28l4.45-12.31v.05L25,63c1.59-4.32,11.64-5,17.56-5l0,.08H58.19s0,0,0,.07c7.17-.4,14.07-1.73,14.1-5.34l2,5.48c0,.21.08.42.13.65C76.11,67.24,68,69.55,62,70.14Z" style="fill:url(#Dégradé_sans_nom_4-4)"/><path d="M57.34,55.19h0L50.38,34.67l-.87,2.61-4.36,13h-.08c-8.93-1.66-14.3,1.43-17.52,5.56L41.37,17.65l.05-.15C46.38,19.59,54.57,45.88,57.34,55.19Z" style="fill:url(#Dégradé_sans_nom_4-5)"/><path d="M41.42,17.5l-.05.15-.09-.21Z" style="fill:url(#Dégradé_sans_nom_4-6)"/><path d="M57.39,55.37l-.06-.18h0A1.21,1.21,0,0,0,57.39,55.37Z" style="fill:url(#Dégradé_sans_nom_4-7)"/><path d="M57.39,55.37l-.06-.18h0A1.21,1.21,0,0,0,57.39,55.37Z" style="fill:url(#Dégradé_sans_nom_4-7)"/><path d="M72.3,52.83l-.14-.37.12,0A2.61,2.61,0,0,1,72.3,52.83Z" style="fill:url(#Dégradé_sans_nom_4-9)"/></g></g></svg>