<svg xmlns="http://www.w3.org/2000/svg" xmlns:xlink="http://www.w3.org/1999/xlink" viewBox="0 0 2081.22 1002"><defs><linearGradient id="Dégradé_sans_nom_7" x1="462.24" y1="837.75" x2="1639.82" y2="837.75" gradientUnits="userSpaceOnUse"><stop offset="0" stop-color="#fff"/><stop offset="1" stop-color="#999"/></linearGradient><linearGradient id="Dégradé_sans_nom_7-2" x1="318.5" y1="151.5" x2="1807.37" y2="151.5" xlink:href="#Dégradé_sans_nom_7"/><linearGradient id="Dégradé_sans_nom_7-3" x1="317.83" y1="479.98" x2="569.03" y2="479.98" xlink:href="#Dégradé_sans_nom_7"/><linearGradient id="Dégradé_sans_nom_53" x1="315.83" y1="480.44" x2="571.03" y2="480.44" gradientUnits="userSpaceOnUse"><stop offset="0" stop-color="#fff"/><stop offset="1" stop-color="#333"/></linearGradient><linearGradient id="Dégradé_sans_nom_7-4" x1="607.03" y1="479.38" x2="885.43" y2="479.38" xlink:href="#Dégradé_sans_nom_7"/><linearGradient id="Dégradé_sans_nom_53-2" x1="605.03" y1="479.66" x2="887.43" y2="479.66" xlink:href="#Dégradé_sans_nom_53"/><linearGradient id="Dégradé_sans_nom_7-5" x1="911.83" y1="479.38" x2="1199.83" y2="479.38" xlink:href="#Dégradé_sans_nom_7"/><linearGradient id="Dégradé_sans_nom_53-3" x1="909.83" y1="478.88" x2="1201.83" y2="478.88" xlink:href="#Dégradé_sans_nom_53"/><linearGradient id="Dégradé_sans_nom_53-4" x1="979.83" y1="478.68" x2="1132.23" y2="478.68" xlink:href="#Dégradé_sans_nom_53"/><linearGradient id="Dégradé_sans_nom_7-6" x1="1532.63" y1="479.98" x2="1779.03" y2="479.98" xlink:href="#Dégradé_sans_nom_7"/><linearGradient id="Dégradé_sans_nom_53-5" x1="1530.63" y1="480.21" x2="1783.15" y2="480.21" xlink:href="#Dégradé_sans_nom_53"/><linearGradient id="Dégradé_sans_nom_7-7" x1="2.85" y1="482.5" x2="291.5" y2="482.5" xlink:href="#Dégradé_sans_nom_7"/><linearGradient id="Dégradé_sans_nom_53-6" x1="0" y1="482.5" x2="294.35" y2="482.5" xlink:href="#Dégradé_sans_nom_53"/><linearGradient id="Dégradé_sans_nom_7-8" x1="1202.59" y1="479.33" x2="1486.37" y2="479.33" xlink:href="#Dégradé_sans_nom_7"/><linearGradient id="Dégradé_sans_nom_53-7" x1="1199.74" y1="479.33" x2="1489.22" y2="479.33" xlink:href="#Dégradé_sans_nom_53"/><linearGradient id="Dégradé_sans_nom_7-9" x1="1799.13" y1="479.96" x2="2078.37" y2="479.96" xlink:href="#Dégradé_sans_nom_7"/><linearGradient id="Dégradé_sans_nom_53-8" x1="1796.28" y1="479.96" x2="2081.22" y2="479.96" xlink:href="#Dégradé_sans_nom_53"/></defs><title>logo blanc</title><g id="Calque_2" data-name="Calque 2"><g id="Calque_1-2" data-name="Calque 1"><path d="M1616.52,673.5a612.38,612.38,0,0,1-97.44,32.38c-15.55,3.73-14.12,3.49-24.87-5.48-6.41-5.36-12.64-11-19.42-15.83-5.65-4-11.66-7.61-17.69-11.07h-11.22c2.24,1.25,4.49,2.48,6.75,3.67,14.79,7.78,27.16,18.66,39.9,29.11a26.55,26.55,0,0,1,3,3.63c-1.73.8-2.92,1.65-4.24,1.91-23.39,4.63-46.87,8.52-70.76,9.36-9.49.34-18.73-1.25-27.92-3.33-20.86-4.74-41-11.82-60.64-20.06a43,43,0,0,1-10.46-6.75q-10.6-8.76-21.17-17.54h-8.62l8.13,6.77c1.91,1.59,3.75,3.27,5.63,4.91-.21.43-.41.85-.62,1.27-8.7-4-17.48-7.77-26.09-11.93l-2.09-1h-23.9a27.2,27.2,0,0,1,3,3A318.68,318.68,0,0,1,1285.24,717a67.06,67.06,0,0,1,2.92,6.23c-3.33-1-5.26-1.4-7.11-2-14.38-5.05-28.89-9.75-43.06-15.31-12.28-4.84-25-6.11-37.94-7.32q-27.4-2.56-54.81-5.34c-7.88-.79-10-2.38-10-9.16,0-3.52-.12-7-.19-10.56h-10.34q.13,5.13.36,10.28a134.15,134.15,0,0,1-13.76-10.28H1103l17.41,15.19a18.54,18.54,0,0,1,6.65,13.59,671.42,671.42,0,0,0,9.4,77,18.23,18.23,0,0,1,0,7.43c-2.73,10.94-5.75,21.8-8.72,32.67a23.54,23.54,0,0,1-1.9,3.54c-1.36-3.06-2.27-4.88-3-6.77-3.85-9.93-7.5-19.94-11.58-29.77a55,55,0,0,0-6.67-11.94q-22.62-30-45.67-59.72a24.37,24.37,0,0,1-5.39-16.12c.11-8.37.13-16.76.13-25.14h-5.42q0,13.88,0,27.76a19.64,19.64,0,0,1-4.38,12.66q-23,29.72-45.53,59.74a71,71,0,0,0-8.07,14.71c-4.15,9.79-7.74,19.82-11.61,29.73-.58,1.47-1.37,2.86-2.07,4.29-5-12.89-9.22-25.66-11.32-39a13.19,13.19,0,0,1,.42-4.34c5-25.85,7.58-52,9.76-78.21a16.84,16.84,0,0,1,6.39-12.22q8.73-7.51,17.4-15.1h-8.37l-9,7.9c-.87.76-2.07,1.14-4,2.19a77.6,77.6,0,0,1-.85-7.78V673.5H967.2q-.24,5.75-.56,11.49c-.34,6.11-1.73,7.46-8.69,8.17-13.92,1.4-27.85,2.69-41.78,4-10.19,1-20.41,1.67-30.55,3a82.59,82.59,0,0,0-15.75,3.89c-16.4,5.61-32.69,11.54-49,17.31-1.87.66-3.84,1-7,1.86,1.38-2.87,2-4.58,2.94-6.1a324.3,324.3,0,0,1,30.58-42A18.56,18.56,0,0,1,849,673.5H825.28c-7.29,3.4-14.62,6.73-21.92,10.15a39.64,39.64,0,0,1-4.5,1.52l-.77-1.46c3.79-3.2,7.56-6.43,11.37-9.6.25-.2.5-.4.74-.61h-8.52q-11.28,9.39-22.56,18.74a29.94,29.94,0,0,1-7.27,4.82c-23,9.54-46.34,18-70.9,22.57-14.16,2.64-28.32,1.82-42.42-.15-15.3-2.14-30.54-4.72-45.8-7.18-2-.32-4-1-7.16-1.86,1.78-1.89,2.52-2.86,3.43-3.63,13.68-11.64,27.41-23.12,43.53-31.49,1.16-.59,2.3-1.2,3.44-1.82H644.1C629.41,682,616.53,693.06,603.63,704c-4.48,3.82-8.81,4.64-14.38,3.34a607,607,0,0,1-103.7-33.87H462.24q11.82,5.58,23.92,10.65C543,708,602.22,722.88,663.47,729.66c9.32,1,18.62,2.06,28.12,1,19.24-2.25,37.63-7.73,55.82-14,24.31-8.41,47.88-18.65,71.16-29.6,2.14-1,4.45-1.7,6.68-2.53a8.72,8.72,0,0,1-1.52,5.21c-2.09,3.12-4.4,6.1-6.47,9.24-22,33.57-38.9,69.59-51.89,107.51-5.44,15.85-10.12,31.91-11,48.74a60.65,60.65,0,0,0,1.5,16.72c2.06,9,8.54,13.7,17.77,13.63a46.74,46.74,0,0,0,10.54-1.26c34.54-8.36,68.93-17.26,102.45-29.18,17-6,33.57-12.88,48.89-22.48,9.91-6.2,18.52-13.63,22.71-25.06a17.35,17.35,0,0,1,1.7-2.63c.86,2.36,1.54,4,2.09,5.77,7.44,23.05,14.42,46.27,22.39,69.14,10.53,30.2,22.73,59.78,38.07,87.9a223.84,223.84,0,0,0,18.08,27.76c6.52,8.6,13.18,8.56,20.36.65a98.26,98.26,0,0,0,10.46-14c12.5-20.12,22.3-41.59,31.35-63.42A977.68,977.68,0,0,0,1140,811a50.54,50.54,0,0,1,1.91-4.81c3.65,5.27,6.28,10.41,10.16,14.31a98.39,98.39,0,0,0,16.52,13.29c16.11,10.34,34,16.92,52,23.18,32.22,11.22,65.28,19.42,98.39,27.46a41.52,41.52,0,0,0,9.3,1.13c9.17.08,14.32-3.62,17.53-12.29a41.94,41.94,0,0,0,1.86-20.41,218.79,218.79,0,0,0-3.77-21.58c-6.13-25.94-16-50.56-27.2-74.66-11.12-23.9-23.53-47.09-39.36-68.3-1-1.28-1.74-2.69-3.31-5.14,2.7,1,4.22,1.5,5.66,2.15,13.35,6,26.57,12.26,40,17.93,24.29,10.22,49,19.44,74.85,24.86,10.25,2.15,20.62,4.07,31.09,2.86,17.85-2,35.73-4.1,53.43-7.1A618.29,618.29,0,0,0,1634.42,676q2.71-1.23,5.4-2.51ZM777.91,798.44a35.75,35.75,0,0,1,1.7-4.71c8.24-18.27,16.56-36.5,24.75-54.8,2.3-5.14,6.07-8.08,11.37-9.9q26.67-9.16,53.16-18.88a94.13,94.13,0,0,1,23.82-5c20.17-1.92,40.34-3.94,60.51-5.87,2-.19,4,0,6,0,.26.56.51,1.13.77,1.69-5.65,5.49-11.28,11-17,16.47-1.5,1.44-3.31,2.6-4.7,4.13-9.92,11-22,19.17-34.32,27.13-24.72,16-49.52,31.91-74.21,48a35.33,35.33,0,0,1-19.38,6.09c-7.08.09-14.15,1.1-21.23,1.7-2.08.17-4.17.48-6.25.48C777.61,804.88,776.5,803.43,777.91,798.44Zm-14,64.82c-.9-16.36,3.11-31.89,8.22-47.2,1.17-3.48,4.07-4.61,7.35-4.93,7.89-.77,15.79-1.45,23.7-2.13,3.48-.3,7-.52,11.94-.89-5.16,8.27-11,14.37-16.21,20.94q-8,10.08-16.1,20c-5.34,6.56-10.75,13.06-17.18,20.85C764.7,866.6,764,865,763.86,863.26Zm66.73-.9c-17.11,4.56-34.27,8.95-51.44,13.28-2.73.69-5.68,1.5-8.67-.84,3.23-6.84,45.95-59.17,50.7-61.87a45.21,45.21,0,0,1,2.57,5.36c3.9,11.87,7.77,23.75,11.5,35.67C837.08,859.84,836.64,860.75,830.59,862.36Zm46.26-13.83c-9.2,2.78-18.29,5.89-27.5,8.62-5.38,1.59-6.71.89-8.45-4.35Q834,832,827.4,811.08c-1.55-4.91-1.16-5.75,3.49-8.65,11.5-7.21,23.15-14.19,34.55-21.56,12.81-8.26,25.4-16.86,38.1-25.29,2-1.35,4.13-2.57,6.2-3.86l1.72,1.14c-1.75,10-2.51,20.33-5.45,30-5.71,18.76-12.78,37.1-19,55.72A14.25,14.25,0,0,1,876.85,848.53ZM965,709.36c-2.38,26.6-5.43,53.1-11.23,79.22-.9,4.06-2.27,8-3.29,12-2.16,8.52-7.38,14.87-14.22,20-12,9-25.46,15-39.34,20.3-1.07.41-2.34.27-4.48.48.8-3,1.29-5.33,2.07-7.59,4.32-12.4,8.61-24.82,13.08-37.17a120.74,120.74,0,0,0,7.14-29.71c.22-2.28.79-4.53.94-6.82.55-9,3.93-15.46,11.75-21.24,11.15-8.26,20.58-18.83,30.75-28.41,1.77-1.66,3.59-3.26,6.1-5.55C964.67,707.12,965.12,708.27,965,709.36ZM995.5,883c-4.8-13.58-9.49-27.19-14.28-40.77a23,23,0,0,1,.62-17c5.09-12.57,9.72-25.32,14.69-37.95a31.66,31.66,0,0,1,4.12-7.67c14.51-19.13,29.14-38.16,43.72-57.22.63-.82,1.15-1.73,2.5-3.76.68,2.87,1.24,4.13,1.24,5.38.05,27.34,0,54.68.06,82a16.62,16.62,0,0,1-4.05,10.87c-6.14,7.65-11.81,15.72-18.35,23-10.37,11.56-17.25,25-22.95,39.21-1.12,2.81-2.65,5.45-4.5,9.19A44.07,44.07,0,0,1,995.5,883Zm25.38,59.39a52.18,52.18,0,0,1-3-5.21c-5-11.46-9.91-23-14.93-34.44a12.6,12.6,0,0,1,.28-10.84c4.39-9.69,8.57-19.47,12.94-29.17a29.45,29.45,0,0,1,3.52-5.88q12.08-15.59,24.32-31a23,23,0,0,1,2.38-2.23c2.44,1.83,1.75,4.28,1.76,6.37.08,13.76,0,27.53,0,41.29,0,11,0,22.11,0,33.17,0,4.08-.69,7.84-3.52,11C1036.93,924.08,1029.27,932.81,1020.88,942.34Zm27.26,1.28c.16,7.3,0,14.61,0,21.92v21.15l-1.9.68a28.47,28.47,0,0,1-3.53-4q-8.15-13.73-16.06-27.59c-1.64-2.86-2.16-5.83-.35-8.92,5.09-8.69,10.83-16.86,18.64-23.38a11,11,0,0,1,2.43-1C1048.87,929.66,1048,936.68,1048.14,943.62Zm27.93,10.09q-9.51,16.53-19.14,33c-.39.65-1.19,1-2.35,2-1.48-6.8-1.37-61.8,0-67,.56.13,1.32.08,1.66.44,7.1,7.37,14.08,14.82,19.12,23.86C1076.76,948.6,1077.61,951,1076.07,953.71Zm22.9-51c-5,11.69-10,23.41-15,35.08-.7,1.62-1.88,3-4,6.33-.91-2-1.26-3-1.78-4-5.3-9.38-13.34-16.5-20.32-24.48-2.6-3-4.36-6-4.34-10,0-26.69,0-53.38,0-80.07a30.55,30.55,0,0,1,.63-3.78c2.08,2.25,3.42,3.51,4.56,4.94,6.62,8.32,13.41,16.52,19.7,25.09a105.7,105.7,0,0,1,9.67,16c3.87,7.85,7,16,10.59,24A12.84,12.84,0,0,1,1099,902.75Zm22.87-63.81c-5.44,15.57-10.83,31.15-16.28,46.72a17.14,17.14,0,0,1-1.63,2.59c-1-1.63-1.74-2.77-2.35-4a51.21,51.21,0,0,1-2.6-5.7c-5.54-16-14.75-29.82-25.78-42.58-5.46-6.3-10.31-13.14-15.6-19.61a16.46,16.46,0,0,1-4.06-10.86c0-27.14,0-54.29,0-81.43a41,41,0,0,1,.87-5.33c2.31,2.69,4,4.45,5.45,6.37,13.45,17.58,26.95,35.13,40.23,52.82a48.38,48.38,0,0,1,6,10.9c5.14,12.79,9.92,25.71,15,38.53C1122.62,831.23,1123.24,835,1121.84,838.94Zm81.92,1.57c-11.07-5.39-22.23-10.61-33.06-16.47s-17.35-15.19-20.38-27.24a461.31,461.31,0,0,1-10.22-58c-1.13-9.53-1.92-19.11-2.83-28.67-.13-1.36,0-2.75,0-5.38,6.4,5.8,12,10.73,17.41,15.81,4.42,4.14,8.57,8.56,13,12.66,3,2.83,6.14,5.78,9.68,7.88a15.26,15.26,0,0,1,8.12,13.15c.25,4,1.23,7.84,1.6,11.79a124.09,124.09,0,0,0,7.47,31c4.43,12.17,8.66,24.41,12.9,36.64.78,2.25,1.19,4.62,2,7.92C1206.82,841.12,1205.11,841.17,1203.76,840.51Zm49.29,16.67c-10.2-3.07-20.28-6.51-30.44-9.7-4.06-1.27-5.95-4.28-7.24-8-4.46-12.82-8.83-25.66-13.51-38.4a168.29,168.29,0,0,1-10.09-41.87c-.22-2.24-.52-4.46-1-8.28,3.2,2,5,3,6.69,4.09q35.55,22.89,71.08,45.81c1.06.67,2.14,1.31,3.15,2,3.72,2.68,4.29,3.72,3,7.87Q1268,832,1261,853.07C1259.39,858,1258.1,858.71,1253.05,857.18Zm70.81,18.52q-26.43-6.53-52.77-13.45c-5-1.33-5.94-2.85-4.43-7.72,4.14-13.35,8.55-26.61,12.89-39.9a18.48,18.48,0,0,1,1.74-2.86c5.19,4.69,8.9,10.15,13.06,15.18,4.37,5.32,8.63,10.73,13,16.09,4.2,5.19,8.5,10.3,12.61,15.55s8.65,9.88,12.68,17.09C1328.52,875.73,1326.06,876.25,1323.86,875.7Zm7-57.49c4,13,6.94,26.22,7.81,39.84a21.77,21.77,0,0,1-1.65,10.31c-4.78-2.78-45.87-53.14-48.8-60,3.87.23,6.94.36,10,.6,7.91.62,15.81,1.32,23.71,1.92C1326.62,811.25,1329.41,813.58,1330.82,818.21Zm-33.43-79.65c10.23,19.21,18.74,39.18,26.55,59.46.44,1.16,1.12,2.5.88,3.58s-1.3,2.83-2.27,3a25.22,25.22,0,0,1-6.84.12c-9.58-.74-19.19-1.27-28.71-2.52a32.85,32.85,0,0,1-12.29-4.1c-32.32-19.26-63.43-40.39-94.49-61.58a66.27,66.27,0,0,1-7.77-6.33c-8.4-7.84-16.71-15.76-25-23.69-1.94-1.84-3.74-3.82-5.6-5.73l.57-1.77c1.78,0,3.58-.15,5.34,0q35.23,3.5,70.46,7.11a35.16,35.16,0,0,1,7.92,1.75c19.94,6.91,39.8,14,59.77,20.86A19.32,19.32,0,0,1,1297.39,738.56Z" style="fill:url(#Dégradé_sans_nom_7)"/><path d="M1788.13,211.66a19.25,19.25,0,0,0-19.25,19.25c0,.22,0,.45,0,.68q-15.81-.3-31.62-.7c-10-.27-20-.94-29.94-1-43.67-.14-87.33,0-131-.23a155.91,155.91,0,0,1-23.89-2.35c-10.72-1.75-21.33-4.13-32-6.33-2.22-.47-4.37-1.29-7.4-2.21,1.73-2.6,2.76-4.45,4.06-6.08,8.57-10.67,17.24-21.25,25.77-31.94a23.14,23.14,0,0,1,9.78-7.28q17.26-6.84,34.41-14a26.75,26.75,0,0,1,15.9-1.64c32.88,6.3,65.57,13.43,97.46,23.69,6.55,2.11,13.07,4.32,19.5,6.71,0,.18,0,.37,0,.56a14.34,14.34,0,0,0,24.67,10h0a14.24,14.24,0,0,0,4-9.07c0-.3,0-.6,0-.9a14.35,14.35,0,0,0-24.94-9.69l-4-1.45c-36.48-13.11-74.08-21.77-112-29.06h0l-.23,0c-7-1-24.11,5.13-26.3,5.93l.39.12a42.16,42.16,0,0,1-4.84,2.86c-8.66,3.55-17.3,7.11-26,10.45a26.11,26.11,0,0,0-11.41,8.33c-9.22,11.55-18.8,22.82-27.74,34.57-4.32,5.67-9,7.68-16.18,6.91-38-4.07-76.11-7.73-114.18-11.53-4.11-.41-8.23-.76-12.32-1.28a62,62,0,0,1-6.26-1.6c2-2.84,3-4.69,4.4-6.26,8.41-9.67,16.81-19.36,25.42-28.85a29.8,29.8,0,0,1,7.65-6c10.66-5.86,21.4-11.59,32.28-17a22.48,22.48,0,0,1,9.32-2.37,688.9,688.9,0,0,1,73,2.33,14.35,14.35,0,0,0,27.08,3.44h0a.53.53,0,0,1,.06-.24c1.74-3.47.91-9,.7-10.2h-.06a14.36,14.36,0,0,0-26.18-2.74q-32.67-2.87-65.58-3.16c-3.49,0-7,.07-10.48.24h0l-20.4,12.6-.47,0h0a97.93,97.93,0,0,1-9.89,5.4c-13.19,5.56-23.34,14.66-32.09,25.78-6,7.67-12.76,14.8-19.09,22.24-2.86,3.36-6.12,5.13-10.76,4.82-13-.86-26-1.49-39-2-15.62-.63-31.25-1-46.88-1.61q-32.22-1.25-64.43-2.71a71.17,71.17,0,0,1-7-1.06c.8-1.94,1.06-3.44,1.89-4.45,4.58-5.51,9.3-10.9,14-16.36,3.33-3.89,7.88-5.22,12.65-6.1,23.71-4.38,47.36-9.12,71.15-13q26.52-4.38,53.2-7.28a14.36,14.36,0,0,0,26.63-2,.39.39,0,0,1,0-.32c1.09-3.26-.15-8.29-.6-9.87h0a14.36,14.36,0,0,0-27,2.45,1220,1220,0,0,0-144.5,24.72c-14.62,3.36-29.12,7.25-43.7,10.78-2.55.62-5.25,2.4-8.74-.5,2.78-3,5.33-5.78,8-8.46,6.21-6.24,11.52-13.05,14.16-21.6A29.16,29.16,0,0,0,1155,110.35c-7.07-4.6-15-6.79-23.17-8.35a169,169,0,0,0-19.6-2.46c6.84-5.09,13.68-10.19,20.58-15.21a31.66,31.66,0,0,0,10.46-13c6.47-14.24,12.88-28.5,19.51-42.67a14.32,14.32,0,1,0-5.91-1.16c-6.38,13.66-12.51,27.43-18.76,41.14a27.66,27.66,0,0,1-9.28,11.45c-8.66,6.22-17.22,12.58-25.78,18.91-8.17-.32-16.36-.36-24.51-.55-20-.45-40,.17-60,1.06q-1.95.09-3.9.21c-8.6-6.36-17.2-12.74-25.89-19a27.64,27.64,0,0,1-9.27-11.45c-6.26-13.71-12.39-27.48-18.77-41.14a14.38,14.38,0,1,0-5.9,1.16c6.63,14.17,13,28.44,19.5,42.67a31.54,31.54,0,0,0,10.47,13c7.05,5.13,14.05,10.35,21.05,15.56-7.21.77-14.4,1.84-21.57,2.92A60.59,60.59,0,0,0,970,107.87c-9.67,4.07-16.83,10.55-19.3,21.35-1.93,8.43,0,16.16,4.51,23,3.93,5.93,8.92,11.17,13.46,16.69,1.44,1.74,3,3.38,4.74,5.38-4.39,1.27-4.4,1.3-7.58.45a1316.2,1316.2,0,0,0-166.65-33,13.38,13.38,0,1,0-2.24,10.1q11.07,1.34,22.12,2.9c27.93,4,55.58,9.9,83.37,14.88a17.36,17.36,0,0,1,10.91,6.43c3.83,4.72,8,9.14,12,13.75a45.43,45.43,0,0,1,2.86,4.13c-1.83,3.52-4.92,3-7.6,3.14-10,.51-19.95.88-29.93,1.26-14.1.54-28.21,1-42.3,1.58-25.6,1.07-51.2,2.13-76.78,3.41-4.53.23-7.84-.85-10.83-4.37-9.13-10.76-18.62-21.22-27.77-32A50.6,50.6,0,0,0,717,154.84c-6.49-3.31-12.84-6.91-19.25-10.38v0l-.2,0-14.8-11.72q-9.22-.27-18.47-.46c-7.8-.15-15.64.48-23.44,1-6.22.42-12.45.79-18.68,1.15a13.38,13.38,0,1,0,.34,9.3c17.15-1.15,34.36-1.17,51.57-1.11a32,32,0,0,1,16.1,4.32c8.88,5,18,9.58,26.88,14.68a42.92,42.92,0,0,1,10.23,7.85c8.64,9.45,16.91,19.25,25.27,29a48.34,48.34,0,0,1,3.17,5c-3.13.69-5.13,1.35-7.17,1.56-41.92,4.26-83.86,8.4-125.77,12.76-6.44.67-11.13-.86-15.18-6.26-8.08-10.77-16.79-21.05-25.15-31.61-4.83-6.1-10.5-10.75-18.05-13.31-7.18-2.44-14.11-5.65-21.12-8.58-1.71-.72-3.33-1.67-5-2.51,0-.31,0-.62,0-.93l-16.61-7.82q-11.86,2.13-23.71,4.38a663.72,663.72,0,0,0-84.82,21.48,14.35,14.35,0,0,0-25.54,9,1.85,1.85,0,0,0,0,.23,14.35,14.35,0,0,0,28.69.27c28.78-9.44,58.29-16.2,88-22.13,22.49-4.49,17.88-4,36.44,3.43,8.07,3.24,16.27,6.19,24.15,9.84a31.23,31.23,0,0,1,10.41,7.49c8.92,10.39,17.34,21.2,25.88,31.9,1.28,1.61,2.22,3.51,3.82,6.07-2.9.91-4.84,1.72-6.86,2.14-13.42,2.75-26.83,5.54-40.3,8a73.94,73.94,0,0,1-13,.85c-49.79.11-99.58,0-149.37.3-12.89.07-25.77.58-38.65,1.06a19.25,19.25,0,1,0-19.17,21c.29,0,.59,0,.88,0,3.46,3.3,7.09,6.44,10.79,9.41A442,442,0,0,0,389.31,290h19.22c-21-12-41.15-25.45-59.41-41.57a19.13,19.13,0,0,0,7.37-11.13c4.35-.25,8.7-.45,13.05-.49q88.32-.81,176.64-1.37c3.18,0,6.37.32,11.05.58-1.3,3.39-1.89,5.42-2.83,7.27-5.24,10.25-10.63,20.43-15.83,30.69a12.27,12.27,0,0,1-8.86,6.91l-15.5,3.43a14.37,14.37,0,1,0,.63,5.54Q524,288,533.1,286.18c5-1,7.94-3.81,10.11-8.23,6.11-12.5,12.66-24.78,18.63-37.34,2.5-5.24,6.11-7.69,11.72-9,24.88-5.63,50.14-8.32,75.47-10.72,32.67-3.09,65.3-6.63,98-9.72,14.49-1.38,29-2.14,43.56-3.09a59.09,59.09,0,0,1,7.17.46A42.61,42.61,0,0,1,795,213.8c-9.4,12.78-18.92,25.48-28.3,38.28a27.68,27.68,0,0,1-11.06,8.82c-14,6.47-27.85,13.34-42,19.46l-2.37,1a14.36,14.36,0,1,0,2,7.25,13.78,13.78,0,0,0-.1-1.71c14.75-6.89,29.54-13.73,44.41-20.39a32.84,32.84,0,0,0,14-11.22c9.68-13.64,19.94-26.86,29.72-40.44,3.3-4.56,7-7.18,12.88-7.36,18.89-.58,37.77-1.5,56.64-2.27a14.68,14.68,0,0,1,3.25.19c3.27.6,4.13,1.78,3.41,4.94a35,35,0,0,1-1.67,4.94c-7.23,18.64-14.51,37.24-21.66,55.91-.28.73-.59,1.44-.92,2.13a14.33,14.33,0,1,0,4.15,5.12,31.07,31.07,0,0,0,1.8-3.91c7.85-20.72,15.89-41.37,23.87-62,3-7.76,3.75-8.25,11.79-8.57q13.66-.53,27.34-1.26c22.08-1.18,43.74,2.94,65.53,5.28,5.08.54,6.08,2.14,4.63,7-3.2,10.67-8.35,19.94-18.56,25.72-19.84,11.25-39.41,23-59.41,34l-3.52,1.92A14.36,14.36,0,1,0,912.58,287q24.67-13.48,49-27.65c2-1.18,4.19-2.09,7.89-3.91.75,5.6,1.48,9.8,1.86,14,.61,6.84,1,13.68,1.13,20.52H982c-.41-10.24-1.23-20.48-1.81-30.72-.11-1.89,0-3.78,0-7.58a143.32,143.32,0,0,0,67.12,23.15c.12.52.23,1,.36,1.55L1032.22,290H1041l5-4.38c2.7-2.36,5.61-4.45,9.54-7.53.32,3.52.65,5.58.66,7.63,0,1.43,0,2.85,0,4.28h5.63c0-1,0-2.09,0-3.14,0-2.5.34-5,.6-8.62,2.41,1.43,4,2.07,5.15,3.1l9.9,8.66H1086c-5.08-4.43-10.13-9-15.07-13.95,12.92-3.24,24.73-5.33,35.89-9.27,10.92-3.84,21.17-9.55,32.37-14.74a370.12,370.12,0,0,0-3.21,38h10.35c.13-8.67.56-17.34,1.54-26,.27-2.44,1.13-4.81,1.91-8.06,2.78,1.32,4.7,2.15,6.54,3.14q26.27,14.27,52.54,28.53a14.34,14.34,0,1,0,1-9.76Q1177.28,260,1145.27,241c-10.46-6.19-15.55-15.4-19-26.14-1.61-5-.66-6.41,4.46-7,23.1-2.51,46.1-6.54,69.49-5.18,8.69.5,17.37,1,26.06,1.28,4.67.15,7,2.7,8.49,6.72,4.41,11.59,9,23.1,13.47,34.66,3.78,9.72,7.63,19.42,11.23,29.21.09.24.19.48.28.71h0a14.33,14.33,0,1,0,4.17-5.64c-7.45-18.66-14.62-37.43-21.89-56.16-.08-.2-.17-.4-.24-.61-2.28-6.33-1.41-7.62,5.56-7.68,6.09,0,12.19,0,18.27.27,12.8.6,25.59,1.59,38.4,2a15.09,15.09,0,0,1,10.94,4.72c-.13,0-.19.06-.18.07s19,24.51,27.89,36.8a31.58,31.58,0,0,0,13,10.46c14.24,6.48,28.5,12.88,42.67,19.51a14.32,14.32,0,1,0,1.16-5.9c-13.65-6.38-27.43-12.52-41.14-18.77a27.64,27.64,0,0,1-11.45-9.27c-8.2-11.42-16.46-22.63-24.78-34l-1.44-2.27c3.71-.29,6.17-.74,8.6-.62,45.84,2.28,91.36,8,137,12.35,13.63,1.31,27.32,2.29,40.86,4.25s26.92,5,40.39,7.5c4.09.75,6.31,3.36,8.07,6.84,6.4,12.59,13.15,25,19.28,37.74,2.73,5.67,6.58,8.5,12.71,9.71q7.88,1.56,15.73,3.27H1606a14.35,14.35,0,1,0,0-5.32l-4.48-1q-7-1.56-14-3.05a9.71,9.71,0,0,1-7.08-5.23q-9.06-18-18.07-36.12c-.27-.54-.17-1.26-.41-3.16a66.63,66.63,0,0,1,6.65-.69c46.92,0,93.85-.2,140.78.18,20.25.16,40.49,1.4,60.74,2.24h0A19.31,19.31,0,0,0,1774,244c-.41.46-.82.88-1.26,1.29-18.77,17.34-39.91,31.38-61.89,44.25l-.74.43h19.28a415.65,415.65,0,0,0,35.72-25.29,188.39,188.39,0,0,0,17.18-15.41,19.25,19.25,0,1,0,5.84-37.59Zm-646.47-96.91c17.21,6.09,21.85,20.47,11.23,35.53-3.06,4.34-5.81,9.13-11.6,11.83-.85-1.62-1.94-3-2.32-4.5-5-19.74-17-34.21-33.48-45.52a18.63,18.63,0,0,1-1.88-1.69C1116.69,110.15,1129.44,110.44,1141.66,114.75Zm-125.55,7.06c29.61-20.75,73.14-16.3,97.89,10a62.86,62.86,0,0,1,13.23,21.48c.91,2.5,1.1,5.25,1.89,9.2-7.67-2.21-13.93-4.42-20.38-5.77a166.94,166.94,0,0,0-19.34-2.56c-6.69-.61-13.42-.9-20.15-1.07s-13.46-.19-20.19,0-13.45.48-20.15,1.1a167.2,167.2,0,0,0-19.33,2.63c-6.44,1.38-12.71,3.62-20.38,5.87.73-3.71.91-6.24,1.74-8.53C995.8,140.67,1004.39,130,1016.11,121.81Zm-55.94,15c-.79-6.48,1.78-11.88,7-15.9a26.07,26.07,0,0,1,3.77-2.52c13.1-6.65,27.22-7.87,42.11-7.17-4,3.38-8.15,6.54-11.85,10.18A86.8,86.8,0,0,0,991,133.14a89.41,89.41,0,0,0-7.88,14.16c-2.11,4.61-3.48,9.57-5.58,15.52C968.6,155.24,961.53,147.91,960.17,136.84Zm32.14,63.34c-.32,1-2.91,1.79-4.39,1.64q-22.65-2.37-45.26-5.17a9.64,9.64,0,0,1-5.28-2.26,128.54,128.54,0,0,1-16-18.5c.29-.42.57-.85.85-1.28a39.28,39.28,0,0,1,5,.71c18.48,4.79,37,9.53,55.37,14.61a24.59,24.59,0,0,1,8.8,5.07C992.49,195.91,992.83,198.67,992.31,200.18Zm134.24,37.58c4.58,5.7,2.9,7.27-2.52,10.42a125.2,125.2,0,0,1-55.73,16.72c-22.74,1.43-44.67-2.18-65.43-11.84A99.3,99.3,0,0,1,992,247.14c-3.75-2.35-3.71-3.49-1.45-7.45,3.32-5.84,6.9-11.59,9.49-17.75a59.92,59.92,0,0,0,3.79-15.11c1.63-12.25-3.34-20.44-14.68-25.26-1.16-.5-2.26-1.15-4.26-2.17A43.62,43.62,0,0,1,1000,170c10.87-4.29,22.28-6,33.83-6.23,16.74-.34,33.5-.47,50.23,0,14.62.41,29.09,2.33,42.11,9.87,2.35,1.37,4.47,3.1,7.84,5.45-3.07,1.48-4.87,2.48-6.77,3.23-6.69,2.6-10.83,7.59-11.76,14.46a53.12,53.12,0,0,0,.25,16.12A54.82,54.82,0,0,0,1126.55,237.76Zm46.82-40.67c-13.57,1.64-27.16,3.16-40.74,4.67-2.51.27-5.36,1.27-7.06-1.63-1.18-2,.6-5.55,3.81-7.49a23.49,23.49,0,0,1,6-2.54q27.66-7.41,55.38-14.63a36.85,36.85,0,0,1,5.38-.62c.32.79.53,1.1.46,1.17-5.64,6.47-11.16,13.06-17.09,19.27C1178.21,196.63,1175.48,196.83,1173.37,197.09Z" style="fill:url(#Dégradé_sans_nom_7-2)"/><path d="M569,620.38h-68.4l-114.4-173.2v173.2h-68.4V339.58h68.4l114.4,174v-174H569Z" style="fill:url(#Dégradé_sans_nom_7-3)"/><path d="M569,621.8c-22.68.32-45.62.54-68.4.49h-1l-.57-.86L384.85,448.09l3-.91-.22,173.2v1.44h-1.44l-68.4-.09h-1.35v-1.35l.35-280.8v-1h1l68.4.08h.5l.27.42L501.18,513.22l-1.2.36.21-174v-.44h.44l68.4.09h.35v.35L569,620.38Zm0-2.82-.35-279.4.35.35-68.4.09.44-.44.22,174v2.18l-1.21-1.82L385.47,340.08l.76.41-68.4.09,1-1,.35,280.8L317.83,619l68.4-.09-1.44,1.44-.21-173.2v-5.51l3,4.6L502.23,619.32l-1.6-.86c22.35-.05,44.53.17,67,.5Z" style="fill:url(#Dégradé_sans_nom_53)"/><path d="M805,428.38a51.27,51.27,0,0,0-21.8-21.4q-14.21-7.39-33.4-7.4-33.21,0-53.2,21.8t-20,58.2q0,38.81,21,60.6t57.8,21.8q25.2,0,42.6-12.8t25.4-36.8h-86.8V462h148.8v63.6a134.19,134.19,0,0,1-25.8,47.6q-18.21,22-46.2,35.6t-63.2,13.6q-41.61,0-74.2-18.2a129.55,129.55,0,0,1-50.8-50.6q-18.21-32.4-18.2-74t18.2-74.2a129.68,129.68,0,0,1,50.6-50.8q32.4-18.19,74-18.2,50.4,0,85,24.4t45.8,67.6Z" style="fill:url(#Dégradé_sans_nom_7-4)"/><path d="M802.78,428.38c0-.08-.1-.14-.15-.21l-.9-1.49c-.53-.88-1.11-1.72-1.69-2.56a46.48,46.48,0,0,0-3.83-4.77,48.62,48.62,0,0,0-9.3-7.93,60,60,0,0,0-22.9-8.75,88.4,88.4,0,0,0-24.85-.55A77.14,77.14,0,0,0,727,404.56a62.73,62.73,0,0,0-11.48,4.61,63.44,63.44,0,0,0-19.21,15.39,69.42,69.42,0,0,0-12.4,21.37,90.72,90.72,0,0,0-5.13,24.39,125.17,125.17,0,0,0-.32,12.56c0,1.05,0,2.09.12,3.14l.17,3.14c.19,2.08.33,4.17.64,6.24s.62,4.13,1,6.19.83,4.09,1.4,6.09,1.17,4,1.8,6,1.43,3.9,2.29,5.79a71,71,0,0,0,6,10.88,67.69,67.69,0,0,0,7.92,9.56,64.86,64.86,0,0,0,20.44,13.87A72.82,72.82,0,0,0,732,557.69c2,.53,4.07.89,6.12,1.28s4.12.65,6.21.82a96.3,96.3,0,0,0,25-.51,64.86,64.86,0,0,0,23.28-8.36,62.6,62.6,0,0,0,18.16-16.76A81.5,81.5,0,0,0,822,511.9l1.42,2-86.8-.11h-1.4v-1.39l.07-50.4v-1.34h1.33l148.8.18h1.16V462l-.07,63.6v.16l0,.14A134.67,134.67,0,0,1,863,570.56a130.63,130.63,0,0,1-17.44,18.37A138.72,138.72,0,0,1,825,603.65q-5.47,3.21-11.17,6c-3.81,1.82-7.71,3.47-11.67,4.94s-8,2.7-12.09,3.79-8.22,2-12.38,2.66-8.36,1.24-12.56,1.59-8.42.57-12.64.6-8.43-.07-12.64-.28-8.41-.62-12.59-1.21a144.1,144.1,0,0,1-48.09-15,132.07,132.07,0,0,1-39.48-31.2,136,136,0,0,1-24.94-43.7,145.65,145.65,0,0,1-6.13-24.5c-.71-4.15-1.16-8.34-1.55-12.53s-.57-8.41-.59-12.62A172.4,172.4,0,0,1,607.92,457c.51-4.18,1.28-8.33,2.13-12.45s1.91-8.21,3.18-12.23a137.79,137.79,0,0,1,23.16-44.59,129.43,129.43,0,0,1,38-32.78c1.81-1.07,3.69-2,5.54-3s3.76-1.9,5.69-2.74c3.81-1.78,7.75-3.29,11.71-4.71a146,146,0,0,1,24.43-6.18,166.47,166.47,0,0,1,25.11-2.18,192.25,192.25,0,0,1,25.16,1.29,152.65,152.65,0,0,1,24.7,5,133.73,133.73,0,0,1,23.4,9.3,121.69,121.69,0,0,1,30.45,22.18,115,115,0,0,1,8.33,9.46c10.48,13.18,17.57,28.82,21.79,45l0,.12h-.12l-75.6-.09Zm3.48,0,74.37-.09-.09.11c-4.25-16.2-11.37-31.78-21.86-44.9a112.36,112.36,0,0,0-8.32-9.41,117.71,117.71,0,0,0-9.35-8.38A120.33,120.33,0,0,0,820,352.05a133.57,133.57,0,0,0-23.34-9.21A151.52,151.52,0,0,0,772,338a191.14,191.14,0,0,0-25.09-1.22,164.74,164.74,0,0,0-25,2.23,146.39,146.39,0,0,0-24.31,6.2c-3.93,1.43-7.84,2.94-11.63,4.72-1.92.84-3.77,1.82-5.65,2.74s-3.7,1.94-5.5,3a128.33,128.33,0,0,0-37.69,32.65,137,137,0,0,0-22.89,44.33c-1.25,4-2.22,8.06-3.13,12.14S609.52,453,609,457.13a171.64,171.64,0,0,0-1.37,25c0,4.19.29,8.37.61,12.53s.86,8.32,1.57,12.44A143.94,143.94,0,0,0,616,531.41c1.4,3.93,2.91,7.83,4.67,11.62s3.65,7.51,5.72,11.14,4.34,7.13,6.7,10.57,5,6.72,7.7,9.87a130.75,130.75,0,0,0,39.12,30.76,142.65,142.65,0,0,0,47.6,14.71c4.13.57,8.3.89,12.47,1.16s8.35.32,12.52.25,8.35-.25,12.51-.63,8.3-.89,12.41-1.6,8.19-1.57,12.21-2.66,8-2.29,11.92-3.76,7.74-3.09,11.49-4.9,7.43-3.81,11-5.93a137.13,137.13,0,0,0,20.28-14.56,128.89,128.89,0,0,0,17.12-18.14,132.52,132.52,0,0,0,23-44l0,.31-.08-63.6,1.15,1.15-148.8.18L738,462l.06,50.4-1.4-1.4,86.8-.1h2.08l-.65,2A84.57,84.57,0,0,1,813.25,536a65.75,65.75,0,0,1-19,17.64,68,68,0,0,1-24.38,8.83,87.58,87.58,0,0,1-12.92,1.13A111.48,111.48,0,0,1,744,563c-2.15-.17-4.29-.53-6.42-.83s-4.26-.78-6.36-1.32a77,77,0,0,1-12.35-4.07,68.32,68.32,0,0,1-21.52-14.53,71.55,71.55,0,0,1-8.35-10,73.35,73.35,0,0,1-6.31-11.41c-.91-2-1.66-4-2.41-6.05s-1.37-4.12-1.89-6.22-1-4.21-1.47-6.32-.78-4.26-1-6.4-.47-4.29-.68-6.43c-.08-1.08-.12-2.16-.19-3.23s-.11-2.15-.12-3.23c-.14-4.3,0-8.61.29-12.92a95,95,0,0,1,5.28-25.36,73.19,73.19,0,0,1,13-22.51,66.8,66.8,0,0,1,32.42-21.23,80,80,0,0,1,12.78-2.61,92.56,92.56,0,0,1,26,.52,64.07,64.07,0,0,1,24.41,9.28,52.32,52.32,0,0,1,10.07,8.54,50,50,0,0,1,4.15,5.15c.63.9,1.26,1.81,1.83,2.75l.43.71.22.35a1.63,1.63,0,0,1,.09.19,2.81,2.81,0,0,1,.19.84Z" style="fill:url(#Dégradé_sans_nom_53-2)"/><path d="M983.63,604.78a137.48,137.48,0,0,1-52.4-51.4q-19.41-33-19.4-74.2t19.4-74a138,138,0,0,1,52.4-51.2q33-18.39,72.6-18.4t72.6,18.4a135.19,135.19,0,0,1,52,51.2q19,32.81,19,74t-19.2,74.2a136.51,136.51,0,0,1-52,51.4q-32.81,18.4-72.4,18.4T983.63,604.78Zm126.4-66.4q20.19-22.39,20.2-59.2,0-37.2-20.2-59.4t-53.8-22.2q-34,0-54.2,22t-20.2,59.6q0,37.2,20.2,59.4t54.2,22.2Q1089.83,560.78,1110,538.38Z" style="fill:url(#Dégradé_sans_nom_7-5)"/><path d="M982.65,606.53q-6.25-3.56-12.19-7.65T959.1,590a139.4,139.4,0,0,1-19.63-21,145.83,145.83,0,0,1-15-24.48,139.47,139.47,0,0,1-9.77-27,161.86,161.86,0,0,1-3.43-57c.56-4.75,1.29-9.48,2.32-14.16a133.11,133.11,0,0,1,3.71-13.87,127.59,127.59,0,0,1,5.11-13.41,130.35,130.35,0,0,1,6.49-12.81,140.62,140.62,0,0,1,37.63-42.8A145.34,145.34,0,0,1,1017.94,339a159.45,159.45,0,0,1,56.83-3.47,145.38,145.38,0,0,1,54.13,17.37c4.16,2.34,8.22,4.84,12.14,7.56s7.67,5.66,11.3,8.76a141.66,141.66,0,0,1,10.3,9.91,137.09,137.09,0,0,1,9.18,10.95,141.9,141.9,0,0,1,14.8,24.38,138.6,138.6,0,0,1,9.52,26.88,154.44,154.44,0,0,1,4.1,28.2c.25,4.75.3,9.5.18,14.25s-.44,9.5-1,14.22A141.61,141.61,0,0,1,1182,551.91a138.22,138.22,0,0,1-37.14,42.68,142,142,0,0,1-51.06,24.32,158.63,158.63,0,0,1-56.48,3.3,144.05,144.05,0,0,1-53.71-17.43Zm1-1.75A144.22,144.22,0,0,0,1037.37,622a158.23,158.23,0,0,0,56.33-3.54A141.46,141.46,0,0,0,1144.43,594a137.68,137.68,0,0,0,36.72-42.58,140.43,140.43,0,0,0,17-53.57c.56-4.68.8-9.4,1-14.11s0-9.44-.24-14.14a153.79,153.79,0,0,0-4.18-27.92,137.22,137.22,0,0,0-9.54-26.53,140.74,140.74,0,0,0-14.72-24,135.67,135.67,0,0,0-9.12-10.76,137.88,137.88,0,0,0-10.2-9.73q-5.37-4.56-11.17-8.59c-3.88-2.66-7.9-5.11-12-7.4a143.31,143.31,0,0,0-53.42-16.89,157.31,157.31,0,0,0-56,3.66,142.72,142.72,0,0,0-50.38,24.27,138,138,0,0,0-53.69,95.22,158.45,158.45,0,0,0,3.6,55.79C927.23,553,951.76,585.14,984.6,603Z" style="fill:url(#Dégradé_sans_nom_53-3)"/><path d="M1108.54,537a72.55,72.55,0,0,0,15.1-26,99.35,99.35,0,0,0,4.81-30.06,106.94,106.94,0,0,0-3.47-30.32,73.79,73.79,0,0,0-13.63-27,64.61,64.61,0,0,0-23.81-18.5,75.58,75.58,0,0,0-29.72-6.25,81.7,81.7,0,0,0-30.13,4.67,63.82,63.82,0,0,0-25.13,17,71.65,71.65,0,0,0-15.21,26.41,103,103,0,0,0-4.74,30.38,107.79,107.79,0,0,0,3.48,30.62,74.61,74.61,0,0,0,13.77,27.39,65.4,65.4,0,0,0,24.17,18.8,77.77,77.77,0,0,0,30.11,6.4,80.26,80.26,0,0,0,30.48-4.73A65.42,65.42,0,0,0,1110,538.38Zm1.49,1.34A65.28,65.28,0,0,1,1084.71,556a80.48,80.48,0,0,1-30.59,5,78.05,78.05,0,0,1-30.39-6.2,66.21,66.21,0,0,1-24.64-18.86,75.7,75.7,0,0,1-14.21-27.69,109.41,109.41,0,0,1-3.77-31,104.19,104.19,0,0,1,4.58-30.9,73.51,73.51,0,0,1,15.39-27.22,66,66,0,0,1,25.82-17.72,84.05,84.05,0,0,1,31-5.06,78.43,78.43,0,0,1,30.8,6.23,67.7,67.7,0,0,1,25,19.13,76.79,76.79,0,0,1,14.43,28A110.46,110.46,0,0,1,1132,481a102.9,102.9,0,0,1-4.75,31.19,76.52,76.52,0,0,1-15.69,27.53Z" style="fill:url(#Dégradé_sans_nom_53-4)"/><path d="M1695.43,620.38l-94.4-124v124h-68.4V339.58H1601v123.2l93.6-123.2H1775l-108.8,137.6L1779,620.38Z" style="fill:url(#Dégradé_sans_nom_7-6)"/><path d="M1693.17,620.38,1599.6,497.46l3.22-1.08-.17,124V622H1601l-68.4-.09h-1.54v-1.53l.38-280.8v-1.16h1.16l68.4.09h1.07v1.07l-.16,123.2-1.62-.55,93.76-123.07.21-.28h.35l80.4.11h1.21l-.75.95-109,137.46V477l112.6,143.35.15.18H1779l-83.6-.11Zm4.51,0,81.35-.11-.09.18L1666,477.4l-.18-.22.18-.22,108.61-137.75.47,1-80.4.11.55-.28-93.43,123.32-1.62,2.14v-2.68l-.16-123.2,1.07,1.07-68.4.09,1.16-1.16.37,280.8-1.53-1.54,68.4-.09-1.63,1.63-.17-124v-5.32l3.22,4.23,93.86,123.3Z" style="fill:url(#Dégradé_sans_nom_53-5)"/><path d="M262.22,545.06c.06,18.75-9.16,43.05-55.26,48.09-.22,0-.4,0-.58.06L217.49,626h74Zm-7.66-19.88c-.22-1-.4-2-.58-2.9L187.66,339H106.72L44.4,511.2c14.45-18.53,38.54-32.36,78.59-24.94l.34.06,23.45-70,35.57,105.06H111.61l.12-.37C85.19,521,40.1,524,33,543.38L22.82,571v-.24L2.85,626H76l17.19-50.68H198.87C225.89,572.69,262.19,562.34,254.56,525.18Z" style="stroke-miterlimit:10;stroke-width:4px;fill:url(#Dégradé_sans_nom_7-7);stroke:url(#Dégradé_sans_nom_53-6)"/><path d="M1457.59,540.84c.06,18.43-9,42.33-54.34,47.28-.21,0-.39,0-.57.06l10.93,32.24h72.76Zm-7.54-19.54c-.21-1-.39-1.95-.57-2.85l-65.2-180.2h-79.57l-61.27,169.3c14.2-18.22,37.88-31.82,77.27-24.52l.33.06,23-68.86,35,103.29h-69.55l.12-.36c-26.09.06-70.42,3-77.42,22l-10,27.2v-.24l-19.63,54.27h72l16.9-49.83H1395.3C1421.87,568,1457.56,557.83,1450.05,521.3Z" style="stroke-miterlimit:10;stroke-width:4px;fill:url(#Dégradé_sans_nom_7-8);stroke:url(#Dégradé_sans_nom_53-7)"/><path d="M2050.05,540.48c.06,18.14-8.86,41.65-53.46,46.53-.21,0-.39,0-.57,0l10.76,31.73h71.59Zm-7.42-19.22c-.2-1-.38-1.92-.56-2.81l-64.15-177.31h-78.3l-60.29,166.59c14-17.93,37.28-31.31,76-24.13l.32.06,22.69-67.76,34.41,101.63h-68.44l.12-.35c-25.67.06-69.29,3-76.18,21.68l-9.83,26.76v-.24l-19.32,53.41h70.8l16.63-49h102.2C2014.9,567.22,2050,557.2,2042.63,521.26Z" style="stroke-miterlimit:10;stroke-width:4px;fill:url(#Dégradé_sans_nom_7-9);stroke:url(#Dégradé_sans_nom_53-8)"/></g></g></svg>