<svg xmlns="http://www.w3.org/2000/svg" xmlns:xlink="http://www.w3.org/1999/xlink" viewBox="0 0 209.25 208.95"><defs><linearGradient id="Dégradé_sans_nom_4" y1="104.48" x2="209.25" y2="104.48" gradientUnits="userSpaceOnUse"><stop offset="0" stop-color="#b61c24"/><stop offset="1" stop-color="#fc0006"/></linearGradient></defs><title>o</title><g id="Calque_2" data-name="Calque 2"><g id="Calque_1-2" data-name="Calque 1"><path d="M52.17,195.59a99.89,99.89,0,0,1-38.08-37.35Q0,134.27,0,104.33T14.09,50.57a100.22,100.22,0,0,1,38.08-37.2A106.47,106.47,0,0,1,104.91,0a106.5,106.5,0,0,1,52.75,13.37,98.12,98.12,0,0,1,37.78,37.2q13.8,23.83,13.81,53.76T195.3,158.24a99.19,99.19,0,0,1-37.78,37.35Q133.69,209,104.91,209A106.46,106.46,0,0,1,52.17,195.59ZM144,147.34q14.67-16.26,14.68-43,0-27-14.68-43.15T104.91,45.05q-24.7,0-39.38,16t-14.67,43.3q0,27,14.67,43.16t39.38,16.13Q129.33,163.62,144,147.34Z" style="fill:url(#Dégradé_sans_nom_4)"/></g></g></svg>